<svg width="144" height="96" viewBox="0 0 144 96" fill="none" xmlns="http://www.w3.org/2000/svg">
<g filter="url(#filter0_d_1_10)">
<path d="M4 57V0.359997H6.88V57H4ZM9.76 57V0.359997H18.4V57H9.76ZM21.28 57V0.359997H24.16V57H21.28ZM32.8 57V0.359997H35.68V57H32.8ZM38.56 57V0.359997H47.2V57H38.56ZM19.84 65.352H26.176C28.608 65.352 30.432 65.832 31.648 66.792C32.928 67.752 33.568 69.096 33.568 70.824C33.568 71.912 33.28 72.904 32.704 73.8C32.064 74.696 31.232 75.336 30.208 75.72C31.488 76.168 32.512 76.904 33.28 77.928C34.048 79.016 34.432 80.168 34.432 81.384C34.432 83.304 33.728 84.84 32.32 85.992C30.976 87.08 28.896 87.624 26.08 87.624H19.84V65.352ZM25.792 74.568C29.312 74.568 31.072 73.384 31.072 71.016C31.072 69.992 30.656 69.16 29.824 68.52C29.056 67.816 27.84 67.464 26.176 67.464H22.24V74.568H25.792ZM26.56 85.416C30.016 85.416 31.744 84.008 31.744 81.192C31.744 78.184 29.792 76.68 25.888 76.68H22.24V85.416H26.56ZM50.125 57V0.359997H58.765V57H50.125ZM61.645 57V0.359997H64.525V57H61.645ZM67.405 57V0.359997H76.045V57H67.405ZM84.685 57V0.359997H87.565V57H84.685ZM90.445 57V0.359997H93.325V57H90.445ZM66.349 65.352H79.981V67.56H68.653V74.856H78.061V77.16H68.653V85.416H79.885V87.624H66.349V65.352ZM96.25 57V0.359997H99.13V57H96.25ZM102.01 57V0.359997H104.89V57H102.01ZM107.77 57V0.359997H116.41V57H107.77ZM119.29 57V0.359997H127.93V57H119.29ZM136.57 57V0.359997H139.45V57H136.57ZM117.754 67.56H111.514V65.352H126.874V67.56H120.346V87.624H117.754V67.56Z" fill="black" shape-rendering="crispEdges"/>
<path d="M4 57H2.5V58.5H4V57ZM4 0.359997V-1.14H2.5V0.359997H4ZM6.88 0.359997H8.38V-1.14H6.88V0.359997ZM6.88 57V58.5H8.38V57H6.88ZM9.76 57H8.26V58.5H9.76V57ZM9.76 0.359997V-1.14H8.26V0.359997H9.76ZM18.4 0.359997H19.9V-1.14H18.4V0.359997ZM18.4 57V58.5H19.9V57H18.4ZM21.28 57H19.78V58.5H21.28V57ZM21.28 0.359997V-1.14H19.78V0.359997H21.28ZM24.16 0.359997H25.66V-1.14H24.16V0.359997ZM24.16 57V58.5H25.66V57H24.16ZM32.8 57H31.3V58.5H32.8V57ZM32.8 0.359997V-1.14H31.3V0.359997H32.8ZM35.68 0.359997H37.18V-1.14H35.68V0.359997ZM35.68 57V58.5H37.18V57H35.68ZM38.56 57H37.06V58.5H38.56V57ZM38.56 0.359997V-1.14H37.06V0.359997H38.56ZM47.2 0.359997H48.7V-1.14H47.2V0.359997ZM47.2 57V58.5H48.7V57H47.2ZM19.84 65.352V63.852H18.34V65.352H19.84ZM31.648 66.792L30.7185 67.9693L30.7331 67.9808L30.748 67.992L31.648 66.792ZM32.704 73.8L33.9246 74.6719L33.9459 74.642L33.9658 74.6111L32.704 73.8ZM30.208 75.72L29.6813 74.3155L25.8063 75.7686L29.7125 77.1358L30.208 75.72ZM33.28 77.928L34.5055 77.063L34.493 77.0453L34.48 77.028L33.28 77.928ZM32.32 85.992L33.2638 87.1579L33.2699 87.1529L32.32 85.992ZM19.84 87.624H18.34V89.124H19.84V87.624ZM29.824 68.52L28.8104 69.6257L28.8581 69.6695L28.9094 69.7089L29.824 68.52ZM22.24 67.464V65.964H20.74V67.464H22.24ZM22.24 74.568H20.74V76.068H22.24V74.568ZM22.24 76.68V75.18H20.74V76.68H22.24ZM22.24 85.416H20.74V86.916H22.24V85.416ZM5.5 57V0.359997H2.5V57H5.5ZM4 1.86H6.88V-1.14H4V1.86ZM5.38 0.359997V57H8.38V0.359997H5.38ZM6.88 55.5H4V58.5H6.88V55.5ZM11.26 57V0.359997H8.26V57H11.26ZM9.76 1.86H18.4V-1.14H9.76V1.86ZM16.9 0.359997V57H19.9V0.359997H16.9ZM18.4 55.5H9.76V58.5H18.4V55.5ZM22.78 57V0.359997H19.78V57H22.78ZM21.28 1.86H24.16V-1.14H21.28V1.86ZM22.66 0.359997V57H25.66V0.359997H22.66ZM24.16 55.5H21.28V58.5H24.16V55.5ZM34.3 57V0.359997H31.3V57H34.3ZM32.8 1.86H35.68V-1.14H32.8V1.86ZM34.18 0.359997V57H37.18V0.359997H34.18ZM35.68 55.5H32.8V58.5H35.68V55.5ZM40.06 57V0.359997H37.06V57H40.06ZM38.56 1.86H47.2V-1.14H38.56V1.86ZM45.7 0.359997V57H48.7V0.359997H45.7ZM47.2 55.5H38.56V58.5H47.2V55.5ZM19.84 66.852H26.176V63.852H19.84V66.852ZM26.176 66.852C28.4512 66.852 29.8807 67.3079 30.7185 67.9693L32.5775 65.6147C30.9833 64.3561 28.7648 63.852 26.176 63.852V66.852ZM30.748 67.992C31.6166 68.6434 32.068 69.5243 32.068 70.824H35.068C35.068 68.6677 34.2394 66.8606 32.548 65.592L30.748 67.992ZM32.068 70.824C32.068 71.6309 31.8592 72.3402 31.4422 72.9889L33.9658 74.6111C34.7008 73.4678 35.068 72.1931 35.068 70.824H32.068ZM31.4834 72.9281C31.0154 73.5834 30.4242 74.0369 29.6813 74.3155L30.7347 77.1245C32.0398 76.6351 33.1126 75.8086 33.9246 74.6719L31.4834 72.9281ZM29.7125 77.1358C30.7293 77.4917 31.5013 78.0565 32.08 78.828L34.48 77.028C33.5227 75.7515 32.2467 74.8443 30.7035 74.3042L29.7125 77.1358ZM32.0545 78.793C32.6618 79.6532 32.932 80.5073 32.932 81.384H35.932C35.932 79.8287 35.4342 78.3788 34.5055 77.063L32.0545 78.793ZM32.932 81.384C32.932 82.8827 32.4084 83.9816 31.3701 84.8311L33.2699 87.1529C35.0476 85.6984 35.932 83.7253 35.932 81.384H32.932ZM31.3762 84.8261C30.4218 85.5988 28.7527 86.124 26.08 86.124V89.124C29.0393 89.124 31.5303 88.5612 33.2638 87.1579L31.3762 84.8261ZM26.08 86.124H19.84V89.124H26.08V86.124ZM21.34 87.624V65.352H18.34V87.624H21.34ZM25.792 76.068C27.673 76.068 29.3471 75.7602 30.5893 74.9246C31.9371 74.0179 32.572 72.6312 32.572 71.016H29.572C29.572 71.7688 29.3269 72.1581 28.9147 72.4354C28.3969 72.7838 27.431 73.068 25.792 73.068V76.068ZM32.572 71.016C32.572 69.5128 31.9289 68.2467 30.7386 67.3311L28.9094 69.7089C29.3831 70.0733 29.572 70.4712 29.572 71.016H32.572ZM30.8376 67.4143C29.6682 66.3423 28.0022 65.964 26.176 65.964V68.964C27.6778 68.964 28.4438 69.2897 28.8104 69.6257L30.8376 67.4143ZM26.176 65.964H22.24V68.964H26.176V65.964ZM20.74 67.464V74.568H23.74V67.464H20.74ZM22.24 76.068H25.792V73.068H22.24V76.068ZM26.56 86.916C28.4532 86.916 30.1514 86.5365 31.3955 85.5229C32.6984 84.4613 33.244 82.9216 33.244 81.192H30.244C30.244 82.2784 29.9256 82.8507 29.5005 83.1972C29.0166 83.5915 28.1228 83.916 26.56 83.916V86.916ZM33.244 81.192C33.244 79.3369 32.622 77.7189 31.1955 76.6198C29.8431 75.5778 27.9907 75.18 25.888 75.18V78.18C27.6893 78.18 28.7649 78.5342 29.3645 78.9962C29.89 79.4011 30.244 80.0391 30.244 81.192H33.244ZM25.888 75.18H22.24V78.18H25.888V75.18ZM20.74 76.68V85.416H23.74V76.68H20.74ZM22.24 86.916H26.56V83.916H22.24V86.916ZM50.125 57H48.625V58.5H50.125V57ZM50.125 0.359997V-1.14H48.625V0.359997H50.125ZM58.765 0.359997H60.265V-1.14H58.765V0.359997ZM58.765 57V58.5H60.265V57H58.765ZM61.645 57H60.145V58.5H61.645V57ZM61.645 0.359997V-1.14H60.145V0.359997H61.645ZM64.525 0.359997H66.025V-1.14H64.525V0.359997ZM64.525 57V58.5H66.025V57H64.525ZM67.405 57H65.905V58.5H67.405V57ZM67.405 0.359997V-1.14H65.905V0.359997H67.405ZM76.045 0.359997H77.545V-1.14H76.045V0.359997ZM76.045 57V58.5H77.545V57H76.045ZM84.685 57H83.185V58.5H84.685V57ZM84.685 0.359997V-1.14H83.185V0.359997H84.685ZM87.565 0.359997H89.065V-1.14H87.565V0.359997ZM87.565 57V58.5H89.065V57H87.565ZM90.445 57H88.945V58.5H90.445V57ZM90.445 0.359997V-1.14H88.945V0.359997H90.445ZM93.325 0.359997H94.825V-1.14H93.325V0.359997ZM93.325 57V58.5H94.825V57H93.325ZM66.349 65.352V63.852H64.849V65.352H66.349ZM79.981 65.352H81.481V63.852H79.981V65.352ZM79.981 67.56V69.06H81.481V67.56H79.981ZM68.653 67.56V66.06H67.153V67.56H68.653ZM68.653 74.856H67.153V76.356H68.653V74.856ZM78.061 74.856H79.561V73.356H78.061V74.856ZM78.061 77.16V78.66H79.561V77.16H78.061ZM68.653 77.16V75.66H67.153V77.16H68.653ZM68.653 85.416H67.153V86.916H68.653V85.416ZM79.885 85.416H81.385V83.916H79.885V85.416ZM79.885 87.624V89.124H81.385V87.624H79.885ZM66.349 87.624H64.849V89.124H66.349V87.624ZM51.625 57V0.359997H48.625V57H51.625ZM50.125 1.86H58.765V-1.14H50.125V1.86ZM57.265 0.359997V57H60.265V0.359997H57.265ZM58.765 55.5H50.125V58.5H58.765V55.5ZM63.145 57V0.359997H60.145V57H63.145ZM61.645 1.86H64.525V-1.14H61.645V1.86ZM63.025 0.359997V57H66.025V0.359997H63.025ZM64.525 55.5H61.645V58.5H64.525V55.5ZM68.905 57V0.359997H65.905V57H68.905ZM67.405 1.86H76.045V-1.14H67.405V1.86ZM74.545 0.359997V57H77.545V0.359997H74.545ZM76.045 55.5H67.405V58.5H76.045V55.5ZM86.185 57V0.359997H83.185V57H86.185ZM84.685 1.86H87.565V-1.14H84.685V1.86ZM86.065 0.359997V57H89.065V0.359997H86.065ZM87.565 55.5H84.685V58.5H87.565V55.5ZM91.945 57V0.359997H88.945V57H91.945ZM90.445 1.86H93.325V-1.14H90.445V1.86ZM91.825 0.359997V57H94.825V0.359997H91.825ZM93.325 55.5H90.445V58.5H93.325V55.5ZM66.349 66.852H79.981V63.852H66.349V66.852ZM78.481 65.352V67.56H81.481V65.352H78.481ZM79.981 66.06H68.653V69.06H79.981V66.06ZM67.153 67.56V74.856H70.153V67.56H67.153ZM68.653 76.356H78.061V73.356H68.653V76.356ZM76.561 74.856V77.16H79.561V74.856H76.561ZM78.061 75.66H68.653V78.66H78.061V75.66ZM67.153 77.16V85.416H70.153V77.16H67.153ZM68.653 86.916H79.885V83.916H68.653V86.916ZM78.385 85.416V87.624H81.385V85.416H78.385ZM79.885 86.124H66.349V89.124H79.885V86.124ZM67.849 87.624V65.352H64.849V87.624H67.849ZM96.25 57H94.75V58.5H96.25V57ZM96.25 0.359997V-1.14H94.75V0.359997H96.25ZM99.13 0.359997H100.63V-1.14H99.13V0.359997ZM99.13 57V58.5H100.63V57H99.13ZM102.01 57H100.51V58.5H102.01V57ZM102.01 0.359997V-1.14H100.51V0.359997H102.01ZM104.89 0.359997H106.39V-1.14H104.89V0.359997ZM104.89 57V58.5H106.39V57H104.89ZM107.77 57H106.27V58.5H107.77V57ZM107.77 0.359997V-1.14H106.27V0.359997H107.77ZM116.41 0.359997H117.91V-1.14H116.41V0.359997ZM116.41 57V58.5H117.91V57H116.41ZM119.29 57H117.79V58.5H119.29V57ZM119.29 0.359997V-1.14H117.79V0.359997H119.29ZM127.93 0.359997H129.43V-1.14H127.93V0.359997ZM127.93 57V58.5H129.43V57H127.93ZM136.57 57H135.07V58.5H136.57V57ZM136.57 0.359997V-1.14H135.07V0.359997H136.57ZM139.45 0.359997H140.95V-1.14H139.45V0.359997ZM139.45 57V58.5H140.95V57H139.45ZM117.754 67.56H119.254V66.06H117.754V67.56ZM111.514 67.56H110.014V69.06H111.514V67.56ZM111.514 65.352V63.852H110.014V65.352H111.514ZM126.874 65.352H128.374V63.852H126.874V65.352ZM126.874 67.56V69.06H128.374V67.56H126.874ZM120.346 67.56V66.06H118.846V67.56H120.346ZM120.346 87.624V89.124H121.846V87.624H120.346ZM117.754 87.624H116.254V89.124H117.754V87.624ZM97.75 57V0.359997H94.75V57H97.75ZM96.25 1.86H99.13V-1.14H96.25V1.86ZM97.63 0.359997V57H100.63V0.359997H97.63ZM99.13 55.5H96.25V58.5H99.13V55.5ZM103.51 57V0.359997H100.51V57H103.51ZM102.01 1.86H104.89V-1.14H102.01V1.86ZM103.39 0.359997V57H106.39V0.359997H103.39ZM104.89 55.5H102.01V58.5H104.89V55.5ZM109.27 57V0.359997H106.27V57H109.27ZM107.77 1.86H116.41V-1.14H107.77V1.86ZM114.91 0.359997V57H117.91V0.359997H114.91ZM116.41 55.5H107.77V58.5H116.41V55.5ZM120.79 57V0.359997H117.79V57H120.79ZM119.29 1.86H127.93V-1.14H119.29V1.86ZM126.43 0.359997V57H129.43V0.359997H126.43ZM127.93 55.5H119.29V58.5H127.93V55.5ZM138.07 57V0.359997H135.07V57H138.07ZM136.57 1.86H139.45V-1.14H136.57V1.86ZM137.95 0.359997V57H140.95V0.359997H137.95ZM139.45 55.5H136.57V58.5H139.45V55.5ZM117.754 66.06H111.514V69.06H117.754V66.06ZM113.014 67.56V65.352H110.014V67.56H113.014ZM111.514 66.852H126.874V63.852H111.514V66.852ZM125.374 65.352V67.56H128.374V65.352H125.374ZM126.874 66.06H120.346V69.06H126.874V66.06ZM118.846 67.56V87.624H121.846V67.56H118.846ZM120.346 86.124H117.754V89.124H120.346V86.124ZM119.254 87.624V67.56H116.254V87.624H119.254Z" fill="#F5F5F5" fill-opacity="0.18"/>
</g>
<defs>
<filter id="filter0_d_1_10" x="0" y="0.360001" width="143.45" height="95.264" filterUnits="userSpaceOnUse" color-interpolation-filters="sRGB">
<feFlood flood-opacity="0" result="BackgroundImageFix"/>
<feColorMatrix in="SourceAlpha" type="matrix" values="0 0 0 0 0 0 0 0 0 0 0 0 0 0 0 0 0 0 127 0" result="hardAlpha"/>
<feOffset dy="4"/>
<feGaussianBlur stdDeviation="2"/>
<feComposite in2="hardAlpha" operator="out"/>
<feColorMatrix type="matrix" values="0 0 0 0 0 0 0 0 0 0 0 0 0 0 0 0 0 0 0.2 0"/>
<feBlend mode="normal" in2="BackgroundImageFix" result="effect1_dropShadow_1_10"/>
<feBlend mode="normal" in="SourceGraphic" in2="effect1_dropShadow_1_10" result="shape"/>
</filter>
</defs>
</svg>
